HIERARCHY
ROOT Hips
{
	OFFSET 0.00 0.00 0.00
	CHANNELS 6 Xposition Yposition Zposition Xrotation Yrotation Zrotation
	JOINT Spine
	{
		OFFSET 0.00000 7.50895 0.00000
		CHANNELS 3 Xrotation Yrotation Zrotation
		JOINT Head
		{
			OFFSET 0.00000 13.86115 0.00000
			CHANNELS 3 Xrotation Yrotation Zrotation
			End Site
			{
				OFFSET 0.00000 4.52755 0.00000
			}
		}
		JOINT LeftShoulder
		{
			OFFSET 0.00000 8.20478 0.00000
			CHANNELS 3 Xrotation Yrotation Zrotation
			JOINT LeftArm
			{
				OFFSET 6.63596 0.00000 0.00000
				CHANNELS 3 Xrotation Yrotation Zrotation
				JOINT LeftForeArm
				{
					OFFSET 10.27422 0.00000 0.00000
					CHANNELS 3 Yrotation Zrotation Xrotation
					JOINT LeftHand
					{
						OFFSET 8.52215 0.00000 0.00000
						CHANNELS 3 Xrotation Yrotation Zrotation
						JOINT LeftHandThumb1
						{
							OFFSET 0.00000 0.00000 0.00000
							CHANNELS 3 Xrotation Zrotation Yrotation
							End Site
							{
								OFFSET 0.00000 0.00000 3.93700
							}
						}
						End Site
						{
							OFFSET 3.93700 0.00000 0.00000
						}
					}
				}
			}
		}
		JOINT RightShoulder
		{
			OFFSET 0.00000 8.20478 0.00000
			CHANNELS 3 Xrotation Yrotation Zrotation
			JOINT RightArm
			{
				OFFSET -6.63596 0.00000 0.00000
				CHANNELS 3 Xrotation Yrotation Zrotation
				JOINT RightForeArm
				{
					OFFSET -10.27422 0.00000 0.00000
					CHANNELS 3 Yrotation Zrotation Xrotation
					JOINT RightHand
					{
						OFFSET -8.52215 0.00000 0.00000
						CHANNELS 3 Xrotation Yrotation Zrotation
						JOINT RightHandThumb1
						{
							OFFSET 0.00000 0.00000 0.00000
							CHANNELS 3 Xrotation Zrotation Yrotation
							End Site
							{
								OFFSET 0.00000 0.00000 3.93700
							}
						}
						End Site
						{
							OFFSET -3.93700 0.00000 0.00000
						}
					}
				}
			}
		}
	}
	JOINT LeftUpLeg
	{
		OFFSET 3.00056 0.00000 0.00000
		CHANNELS 3 Xrotation Yrotation Zrotation
		JOINT LeftLeg
		{
			OFFSET 0.00000 -16.49085 0.00000
			CHANNELS 3 Xrotation Yrotation Zrotation
			JOINT LeftFoot
			{
				OFFSET 0.00000 -14.55658 0.00000
				CHANNELS 3 Xrotation Yrotation Zrotation
				JOINT LeftToeBase
				{
					OFFSET 0.00000 -1.25038 4.66650
					CHANNELS 3 Xrotation Yrotation Zrotation
					End Site
					{
						OFFSET 0.00000 0.00000 2.95275
					}
				}
			}
		}
	}
	JOINT RightUpLeg
	{
		OFFSET -3.00056 0.00000 0.00000
		CHANNELS 3 Xrotation Yrotation Zrotation
		JOINT RightLeg
		{
			OFFSET 0.00000 -16.49085 0.00000
			CHANNELS 3 Xrotation Yrotation Zrotation
			JOINT RightFoot
			{
				OFFSET 0.00000 -14.55658 0.00000
				CHANNELS 3 Xrotation Yrotation Zrotation
				JOINT RightToeBase
				{
					OFFSET 0.00000 -1.25038 4.66650
					CHANNELS 3 Xrotation Yrotation Zrotation
					End Site
					{
						OFFSET 0.00000 0.00000 2.95275
					}
				}
			}
		}
	}
}
MOTION
Frames: 16
Frame Time: 0.008333
 -1.9925 3.8226 -7.8399 -23.0128 2.2432 8.1242 54.1143 53.8490 -36.6548 -90.5555 70.4779 70.9461 9.0987 13.4234 16.2266 -22.8604 -33.1802 -90.4190 -8.5562 0.0000 -27.5916 -52.8274 9.4738 82.8856 33.1476 -0.0000 26.2537 -26.2462 16.2459 -17.4792 31.0413 43.6835 50.9731 15.3819 -0.0000 23.9735 2.8290 -4.5579 31.8752 32.8623 0.0000 -24.3270 -108.8480 24.0187 -22.8197 116.5401 0.0000 -0.0000 12.8571 12.8155 -15.8170 6.3856 0.0000 0.0000 -62.3822 -17.6548 5.8534 6.2052 -0.0000 -0.0000 38.0571 1.1422 11.3711 7.7910 0.0000 -0.0000
 -1.9936 3.8206 -7.8432 -23.0138 2.3318 8.1094 54.0844 53.8624 -36.6137 -90.5612 70.4113 70.9339 9.0792 13.3950 16.2568 -22.8884 -33.2633 -90.4417 -8.5743 0.0000 -27.6246 -52.8488 9.4363 82.9187 33.1476 -0.0000 26.2537 -26.2498 16.2348 -17.4564 31.0476 43.7127 50.9277 15.3488 -0.0000 23.9680 2.8448 -4.5849 31.8664 32.8623 0.0000 -24.3270 -108.8121 24.0794 -22.8375 116.5150 0.0000 -0.0000 12.8855 12.8138 -15.7138 6.3012 0.0000 0.0000 -62.4094 -17.6613 5.7880 6.1851 0.0000 0.0000 38.0736 1.2000 11.3010 7.8127 -0.0000 0.0000
 -1.9955 3.8183 -7.8451 -23.0227 2.4284 8.0786 54.0371 53.9051 -36.5336 -90.3876 70.3803 70.7672 9.1145 13.3818 16.2744 -22.9737 -33.4540 -90.4741 -8.5942 0.0000 -27.7527 -52.7942 9.4244 82.9136 33.1476 -0.0000 26.2537 -26.2697 16.2143 -17.4461 31.0888 43.7613 50.8739 15.3220 -0.0000 24.0240 2.8371 -4.5718 31.8701 32.8623 0.0000 -24.3270 -108.7699 24.1192 -22.8697 116.5007 -0.0000 0.0000 12.8851 12.7886 -15.6790 6.3531 0.0000 -0.0000 -62.4256 -17.7228 5.7351 6.1624 0.0000 -0.0000 38.2350 1.3465 10.8157 7.0999 -0.0000 -0.0000
 -1.9965 3.8157 -7.8491 -23.0148 2.5040 8.0552 53.9862 53.9390 -36.4716 -90.1751 70.3550 70.5593 9.0886 13.3500 16.2976 -22.9948 -33.4832 -90.5064 -8.5781 0.0000 -27.7342 -52.8330 9.4068 82.9364 33.1476 -0.0000 26.2537 -26.2929 16.1849 -17.4191 31.1242 43.8137 50.7864 15.3221 -0.0000 24.1424 2.8161 -4.5440 31.8354 32.8623 0.0000 -24.3270 -108.7528 24.1539 -22.8810 116.4804 -0.0000 0.0000 12.9004 12.7457 -15.6251 6.3407 0.0000 0.0000 -62.4601 -17.7216 5.6819 6.1559 0.0000 0.0000 38.1308 1.2952 11.1672 7.7165 -0.0000 0.0000
 -1.9977 3.8139 -7.8525 -23.0133 2.5822 8.0181 53.9093 53.9923 -36.3654 -89.7815 70.3604 70.1856 9.1462 13.3321 16.2725 -23.0835 -33.4670 -90.5177 -8.5485 0.0000 -27.6907 -52.8864 9.3813 82.9686 33.1476 -0.0000 26.2537 -26.2900 16.1757 -17.4089 31.0444 43.7739 50.8036 15.3011 -0.0000 24.1883 2.8497 -4.5852 31.9101 32.8623 0.0000 -24.3270 -108.7306 24.1765 -22.9001 116.4645 -0.0000 -0.0000 12.9206 12.7117 -15.6363 6.3573 0.0000 0.0000 -62.4831 -17.7229 5.6374 6.1441 0.0000 0.0000 38.1235 1.3087 11.2148 7.7756 0.0000 0.0000
 -1.9979 3.8128 -7.8540 -23.0380 2.6542 7.9871 53.8678 54.0441 -36.2602 -89.2500 70.3616 69.6542 9.1326 13.2930 16.2667 -23.1011 -33.4826 -90.5401 -8.5284 0.0000 -27.6547 -52.9150 9.3870 82.9717 33.1476 -0.0000 26.2537 -26.2928 16.1668 -17.4214 30.9696 43.7530 50.8308 15.2840 -0.0000 24.2179 2.8270 -4.5681 31.7997 32.8623 0.0000 -24.3270 -108.6738 24.2097 -22.9136 116.4479 -0.0000 0.0000 12.9487 12.6599 -15.6093 6.2599 -0.0000 -0.0000 -62.4756 -17.7763 5.6032 6.1210 -0.0000 -0.0000 38.2721 1.4377 10.7093 7.2172 0.0000 0.0000
 -1.9980 3.8111 -7.8573 -23.0467 2.7155 7.9552 53.8174 54.0864 -36.1649 -88.8617 70.3641 69.2357 9.0656 13.2607 16.2764 -23.0659 -33.5126 -90.5689 -8.5209 0.0000 -27.6311 -52.9425 9.4054 82.9651 33.1476 -0.0000 26.2537 -26.2891 16.1603 -17.4371 30.8962 43.7522 50.8368 15.2843 -0.0000 24.2721 2.8122 -4.5512 31.7591 32.8623 0.0000 -24.3270 -108.6409 24.2329 -22.9167 116.4303 0.0000 0.0000 12.9710 12.6224 -15.5890 6.2340 0.0000 -0.0000 -62.4823 -17.7673 5.5604 6.1094 -0.0000 -0.0000 38.1491 1.4108 11.0724 7.8204 -0.0000 0.0000
 -2.0054 3.8105 -7.8552 -23.0123 2.6661 7.9430 53.9493 54.1796 -36.3760 -88.5550 70.2424 68.8377 9.0154 13.2279 16.3421 -23.0863 -33.5481 -90.5776 -8.5246 0.0000 -27.6381 -52.9588 9.3998 82.9734 33.1476 -0.0000 26.2537 -26.3241 16.1163 -17.4099 30.7721 43.7353 50.8979 15.2742 -0.0000 24.2717 2.8276 -4.5716 31.7858 32.8623 0.0000 -24.3270 -108.6981 24.2419 -22.7900 116.4740 0.0000 0.0000 12.9577 12.5788 -15.5251 6.1732 0.0000 0.0000 -62.4735 -17.7209 5.6582 6.0639 -0.0000 -0.0000 38.3541 1.4666 10.6969 7.0428 -0.0000 -0.0000
 -2.0061 3.8111 -7.8571 -23.0152 2.6765 7.9351 53.9851 54.2070 -36.4043 -88.4061 70.2024 68.5922 8.9670 13.2182 16.3506 -23.0803 -33.5623 -90.5945 -8.5186 0.0000 -27.6073 -52.9369 9.4215 82.9519 33.1476 -0.0000 26.2537 -26.3362 16.1109 -17.3850 30.7762 43.7766 50.8250 15.3019 -0.0000 24.2850 2.8206 -4.5827 31.6604 32.8623 0.0000 -24.3270 -108.6870 24.2654 -22.7393 116.4759 0.0000 0.0000 12.9531 12.5424 -15.5538 6.2026 0.0000 0.0000 -62.4658 -17.6795 5.6570 6.0526 -0.0000 -0.0000 38.2717 1.3951 11.1619 7.4992 -0.0000 -0.0000
 -1.9985 3.8093 -7.8630 -23.0641 2.8396 7.8954 53.7816 54.1823 -36.0636 -88.2367 70.2645 68.3312 8.9983 13.2252 16.2800 -23.0949 -33.5646 -90.6169 -8.5206 0.0000 -27.5479 -52.9689 9.3204 83.0341 33.1476 -0.0000 26.2537 -26.3098 16.1069 -17.4280 30.8290 43.8924 50.7180 15.2953 -0.0000 24.3096 2.7970 -4.5425 31.6695 32.8623 0.0000 -24.3270 -108.5628 24.3159 -22.8803 116.4112 -0.0000 -0.0000 12.9531 12.4717 -15.4796 5.6705 -0.0000 -0.0000 -62.4783 -17.7801 5.5183 6.0390 0.0000 0.0000 38.4054 1.5366 10.7595 6.8299 0.0000 -0.0000
 -1.9933 3.8059 -7.8692 -23.0514 2.9587 7.8638 53.5789 54.1794 -35.8383 -88.1009 70.2554 68.1430 9.0130 13.2332 16.2631 -23.0779 -33.5887 -90.6337 -8.5718 0.0000 -27.5397 -52.9074 9.3376 83.0061 33.1476 -0.0000 26.2537 -26.3091 16.1217 -17.4254 30.8897 43.9999 50.6335 15.2860 -0.0000 24.3258 2.7945 -4.5406 31.6577 32.8623 0.0000 -24.3270 -108.5347 24.3680 -22.9384 116.3651 0.0000 0.0000 13.0012 12.4329 -15.4532 5.6061 -0.0000 -0.0000 -62.5365 -17.8168 5.4225 6.0255 0.0000 0.0000 38.4384 1.5894 10.7110 6.7840 -0.0000 -0.0000
 -2.0028 3.8066 -7.8647 -23.0102 2.8537 7.8500 53.7082 54.2642 -36.0862 -88.1320 70.1207 68.0577 9.0456 13.2237 16.3087 -23.1262 -33.5457 -90.6024 -8.5738 0.0000 -27.5215 -52.9619 9.2537 83.0813 33.1476 -0.0000 26.2537 -26.3951 16.1466 -17.3384 30.9118 44.0665 50.6267 15.2466 -0.0000 24.3312 2.8299 -4.5781 31.7704 32.8623 0.0000 -24.3270 -108.5904 24.5346 -22.7552 116.3986 0.0000 -0.0000 13.2278 12.9263 -15.3193 5.4073 0.0000 -0.0000 -62.5086 -17.7344 5.5645 5.9834 -0.0000 -0.0000 38.4802 1.5738 10.6322 6.8219 0.0000 0.0000
 -2.0037 3.8065 -7.8653 -23.0075 2.8487 7.8414 53.7075 54.2848 -36.1024 -88.0672 70.0478 67.9067 9.0330 13.2036 16.3379 -23.1210 -33.5715 -90.6144 -8.5641 0.0000 -27.5314 -53.0275 9.2351 83.1112 33.1476 -0.0000 26.2537 -26.4067 16.1733 -17.3078 30.9083 44.1194 50.5900 15.2467 -0.0000 24.3643 2.8580 -4.6166 31.8093 32.8623 0.0000 -24.3270 -108.5963 24.5278 -22.6920 116.4194 -0.0000 0.0000 13.1781 12.8203 -15.3344 5.3926 0.0000 -0.0000 -62.5057 -17.6931 5.5836 5.9764 0.0000 -0.0000 38.5009 1.5648 10.7156 6.7290 0.0000 -0.0000
 -2.0016 3.8055 -7.8680 -23.0088 2.8935 7.8182 53.6177 54.3124 -35.9903 -87.8628 70.0335 67.6318 9.0452 13.1658 16.3310 -23.1095 -33.5893 -90.6196 -8.5517 0.0000 -27.5548 -53.0546 9.2305 83.1213 33.1476 -0.0000 26.2537 -26.4265 16.1962 -17.2964 30.8855 44.1159 50.5814 15.2691 -0.0000 24.3972 2.8786 -4.6406 31.8612 32.8623 0.0000 -24.3270 -108.5845 24.5131 -22.6888 116.4113 -0.0000 0.0000 13.1513 12.6863 -15.3503 5.4141 0.0000 0.0000 -62.5217 -17.6870 5.5555 5.9696 -0.0000 0.0000 38.5255 1.5603 10.7077 6.7367 -0.0000 0.0000
 -1.9988 3.8038 -7.8708 -23.0111 2.9498 7.7919 53.5043 54.3358 -35.8449 -87.6730 70.0282 67.3988 9.0638 13.1406 16.3206 -23.1130 -33.6672 -90.6351 -8.5340 0.0000 -27.6195 -53.0604 9.2841 83.0835 33.1476 -0.0000 26.2537 -26.4434 16.2315 -17.3008 30.7352 44.0097 50.6922 15.2439 -0.0000 24.4131 2.8707 -4.6263 31.8703 32.8623 0.0000 -24.3270 -108.5618 24.5331 -22.7100 116.3944 0.0000 -0.0000 13.1770 12.6753 -15.3717 5.3906 -0.0000 -0.0000 -62.5409 -17.6830 5.5139 5.9662 -0.0000 -0.0000 38.4871 1.5587 10.6914 6.8760 0.0000 -0.0000
 -1.9953 3.8026 -7.8733 -23.0090 2.9856 7.7737 53.4345 54.3705 -35.7514 -87.5463 70.0402 67.2168 9.0305 13.0959 16.3185 -23.0742 -33.7186 -90.6458 -8.4895 0.0000 -27.6689 -53.0788 9.2724 83.0967 33.1476 -0.0000 26.2537 -26.4371 16.2410 -17.3121 30.5587 43.9028 50.7989 15.1994 -0.0000 24.4258 2.8406 -4.5732 31.8948 32.8623 0.0000 -24.3270 -108.5636 24.5182 -22.7044 116.3855 0.0000 -0.0000 13.1733 12.5310 -15.3736 5.4723 0.0000 -0.0000 -62.5781 -17.6870 5.4777 6.0119 -0.0000 -0.0000 38.3427 1.5019 11.0044 7.4317 -0.0000 0.0000
